<?xml version="1.0" encoding="utf-8"?>
<!-- Generator: Adobe Illustrator 16.0.3, SVG Export Plug-In . SVG Version: 6.00 Build 0)  -->
<!DOCTYPE svg PUBLIC "-//W3C//DTD SVG 1.1//EN" "http://www.w3.org/Graphics/SVG/1.1/DTD/svg11.dtd">
<svg version="1.1" id="Layer_1" xmlns="http://www.w3.org/2000/svg" xmlns:xlink="http://www.w3.org/1999/xlink" x="0px" y="0px"
	 width="92px" height="60px" viewBox="0 0 92 60" enable-background="new 0 0 92 60" xml:space="preserve">
<g>
	<g>
		<path fill-rule="evenodd" clip-rule="evenodd" fill="#FFFFFF" fill-opacity="0.2471" d="M91.25,1.35v25.9v17.9
			c0.066,4.566-2.783,8.033-8.55,10.399c-0.967,0.4-2.017,0.767-3.15,1.101c-22.8,3.866-44.8,3.866-66,0
			C4.85,54.35,0.717,50.634,1.15,45.5V27.25L1.3,2.5C13.63,2.8,30.522,2.725,51.975,2.275C73.427,1.824,86.519,1.515,91.25,1.35z"/>
		
			<path fill-rule="evenodd" clip-rule="evenodd" fill="none" stroke="#FFFFFF" stroke-width="0.1" stroke-linecap="round" stroke-linejoin="round" stroke-miterlimit="3" d="
			M91.25,1.35c-4.731,0.165-17.823,0.474-39.275,0.925C30.522,2.725,13.63,2.8,1.3,2.5"/>
	</g>
</g>
</svg>
