<?xml version="1.0" encoding="utf-8"?>
<!-- Generator: Adobe Illustrator 16.0.3, SVG Export Plug-In . SVG Version: 6.00 Build 0)  -->
<!DOCTYPE svg PUBLIC "-//W3C//DTD SVG 1.1//EN" "http://www.w3.org/Graphics/SVG/1.1/DTD/svg11.dtd">
<svg version="1.1" id="Layer_4" xmlns="http://www.w3.org/2000/svg" xmlns:xlink="http://www.w3.org/1999/xlink" x="0px" y="0px"
	 width="110.5px" height="78px" viewBox="0 0 110.5 78" enable-background="new 0 0 110.5 78" xml:space="preserve">
<g>
	<g>
		<path fill-rule="evenodd" clip-rule="evenodd" fill="#FFFFFF" fill-opacity="0.2471" d="M2.7,1.8h105.65v10.95v18.4v22.5h0.05
			c0,0.667-0.017,1.383-0.05,2.15v2.45c-0.067,1.167-0.217,2.267-0.45,3.3c-0.466,1.8-1.3,3.483-2.5,5.05
			c-0.533,0.767-1.283,1.5-2.25,2.2c-1.833,1.267-4.316,2.267-7.45,3c-1.167,0.267-2.833,0.617-5,1.05
			c-25.133,4.767-50.267,4.45-75.4-0.95c-2.8-0.833-5.116-1.75-6.95-2.75c-1.767-1-3-2.05-3.7-3.15
			c-1.367-2.3-2.017-4.817-1.95-7.55v-4.8v-22.5v-18.4V1.8z"/>
		
			<line fill-rule="evenodd" clip-rule="evenodd" fill="none" stroke="#FFFFFF" stroke-linecap="round" stroke-linejoin="round" stroke-miterlimit="3" x1="108.35" y1="1.8" x2="2.7" y2="1.8"/>
	</g>
</g>
</svg>
