<?xml version="1.0" encoding="utf-8"?>
<!-- Generator: Adobe Illustrator 16.0.3, SVG Export Plug-In . SVG Version: 6.00 Build 0)  -->
<!DOCTYPE svg PUBLIC "-//W3C//DTD SVG 1.1//EN" "http://www.w3.org/Graphics/SVG/1.1/DTD/svg11.dtd">
<svg version="1.1" id="Layer_1" xmlns="http://www.w3.org/2000/svg" xmlns:xlink="http://www.w3.org/1999/xlink" x="0px" y="0px"
	 width="91px" height="57px" viewBox="0 0 91 57" enable-background="new 0 0 91 57" xml:space="preserve">
<g>
	<path fill-rule="evenodd" clip-rule="evenodd" fill="#FFFFFF" fill-opacity="0.2471" d="M0.45,5.4C19.15-0.5,37.867-0.8,56.6,4.5
		c0.634,0.167,1.267,0.35,1.9,0.55c10.667,3,21.35,4.2,32.05,3.6V23.8v17.9c0.066,4.566-2.783,8.033-8.55,10.399
		c-0.967,0.4-2.017,0.767-3.15,1.101c-22.8,3.866-44.8,3.866-66,0c-8.7-2.3-12.833-6.017-12.4-11.15V23.8V5.4z"/>
	
		<path fill-rule="evenodd" clip-rule="evenodd" fill="none" stroke="#FFFFFF" stroke-linecap="round" stroke-linejoin="round" stroke-miterlimit="3" d="
		M0.45,5.4C19.15-0.5,37.867-0.8,56.6,4.5c0.634,0.167,1.267,0.35,1.9,0.55c10.667,3,21.35,4.2,32.05,3.6"/>
</g>
</svg>
