<?xml version="1.0" encoding="utf-8"?>
<!-- Generator: Adobe Illustrator 16.0.3, SVG Export Plug-In . SVG Version: 6.00 Build 0)  -->
<!DOCTYPE svg PUBLIC "-//W3C//DTD SVG 1.1//EN" "http://www.w3.org/Graphics/SVG/1.1/DTD/svg11.dtd">
<svg version="1.1" id="Layer_1" xmlns="http://www.w3.org/2000/svg" xmlns:xlink="http://www.w3.org/1999/xlink" x="0px" y="0px"
	 width="170px" height="95px" viewBox="0 0 170 95" enable-background="new 0 0 170 95" xml:space="preserve">
<g>
	<path fill-rule="evenodd" clip-rule="evenodd" fill="#FFFFFF" fill-opacity="0.2471" d="M32.15,13H148.2l9.1,29.7h0.05
		c0.2,0.7,0.4,1.433,0.601,2.2l0.75,2.45c0.333,1.2,0.533,2.333,0.6,3.4c0.101,1.967-0.217,3.934-0.95,5.9
		c-0.3,0.933-0.816,1.899-1.55,2.899c-1.467,1.834-3.666,3.601-6.6,5.3c-1.066,0.634-2.634,1.5-4.7,2.601
		c-23.733,12.533-49.066,19.967-76,22.3c-3.067,0.066-5.667-0.134-7.8-0.6c-2.1-0.467-3.667-1.167-4.7-2.101
		c-2.1-1.866-3.517-4.2-4.25-7l-1.5-4.8L32.15,13z"/>
	
		<line fill-rule="evenodd" clip-rule="evenodd" fill="none" stroke="#FFFFFF" stroke-linecap="round" stroke-linejoin="round" stroke-miterlimit="3" x1="32.15" y1="13" x2="148.2" y2="13"/>
</g>
</svg>
