<?xml version="1.0" encoding="utf-8"?>
<!-- Generator: Adobe Illustrator 16.0.3, SVG Export Plug-In . SVG Version: 6.00 Build 0)  -->
<!DOCTYPE svg PUBLIC "-//W3C//DTD SVG 1.1//EN" "http://www.w3.org/Graphics/SVG/1.1/DTD/svg11.dtd">
<svg version="1.1" xmlns="http://www.w3.org/2000/svg" xmlns:xlink="http://www.w3.org/1999/xlink" x="0px" y="0px" width="126px"
	 height="4px" viewBox="0 0 126 4" enable-background="new 0 0 126 4" xml:space="preserve">
<g id="Layer_3">
</g>
<g id="Layer_1">
	<g>
		<g>
			<linearGradient id="SVGID_1_" gradientUnits="userSpaceOnUse" x1="63.0254" y1="0.3252" x2="63.0254" y2="3.7759">
				<stop  offset="0" style="stop-color:#919191;stop-opacity:0.7686"/>
				<stop  offset="0.2196" style="stop-color:#FFFFFF"/>
				<stop  offset="0.5333" style="stop-color:#F5F5F5"/>
				<stop  offset="0.8471" style="stop-color:#DADADA;stop-opacity:0"/>
				<stop  offset="1" style="stop-color:#999999;stop-opacity:0.6588"/>
			</linearGradient>
			<path fill-rule="evenodd" clip-rule="evenodd" fill="url(#SVGID_1_)" d="M125.65,0.8c0.1,0.367,0.149,0.784,0.149,1.25
				c0,0.467-0.05,0.867-0.149,1.2c-0.101,0.333-0.217,0.5-0.351,0.5H85H24.1h-7.9H0.8c-0.133,0-0.25-0.167-0.35-0.5
				c-0.134-0.333-0.2-0.733-0.2-1.2c0-0.466,0.066-0.883,0.2-1.25c0.1-0.333,0.216-0.5,0.35-0.5h15.4h7.9H85h40.3
				C125.434,0.3,125.55,0.467,125.65,0.8z"/>
			<path fill-rule="evenodd" clip-rule="evenodd" fill="none" stroke="#CFD4D4" stroke-width="0.1" stroke-miterlimit="3" d="
				M125.65,0.8c0.1,0.367,0.149,0.784,0.149,1.25c0,0.467-0.05,0.867-0.149,1.2c-0.101,0.333-0.217,0.5-0.351,0.5H85H24.1h-7.9H0.8
				c-0.133,0-0.25-0.167-0.35-0.5c-0.134-0.333-0.2-0.733-0.2-1.2c0-0.466,0.066-0.883,0.2-1.25c0.1-0.333,0.216-0.5,0.35-0.5h15.4
				h7.9H85h40.3C125.434,0.3,125.55,0.467,125.65,0.8z"/>
		</g>
	</g>
</g>
</svg>
