<?xml version="1.0" encoding="utf-8"?>
<!-- Generator: Adobe Illustrator 16.0.3, SVG Export Plug-In . SVG Version: 6.00 Build 0)  -->
<!DOCTYPE svg PUBLIC "-//W3C//DTD SVG 1.1//EN" "http://www.w3.org/Graphics/SVG/1.1/DTD/svg11.dtd">
<svg version="1.1" id="Layer_1" xmlns="http://www.w3.org/2000/svg" xmlns:xlink="http://www.w3.org/1999/xlink" x="0px" y="0px"
	 width="38px" height="54px" viewBox="0 0 38 54" enable-background="new 0 0 38 54" xml:space="preserve">
<g>
	
		<radialGradient id="SVGID_1_" cx="20.6504" cy="47.4004" r="5.8375" gradientTransform="matrix(1 0 0 1.0771 0 -3.654)" gradientUnits="userSpaceOnUse">
		<stop  offset="0" style="stop-color:#000000"/>
		<stop  offset="1" style="stop-color:#000000;stop-opacity:0"/>
	</radialGradient>
	<path fill-rule="evenodd" clip-rule="evenodd" fill="url(#SVGID_1_)" d="M23.9,47.55c0.466,0.934,0.383,2.033-0.25,3.3
		c0.166,0.167,0.316,0.617,0.449,1.351c0.101,0.733,0.117,1.133,0.051,1.2C24.05,53.467,23.1,53.517,21.3,53.55
		c-1.934-0.066-3.017-0.066-3.25,0H17.8c-1.2-0.166-1.316-0.866-0.35-2.1c-0.767-1.066-0.867-2.25-0.3-3.55
		c-0.6-2.101-0.133-3.367,1.4-3.801c0.8-0.333,1.934-0.5,3.4-0.5c0.7,0,1.2,0.067,1.5,0.2c0.434,0.267,0.7,0.667,0.8,1.2
		s0.116,1.167,0.05,1.9L23.9,47.55z"/>
</g>
<g>
	<g>
		
			<radialGradient id="SVGID_2_" cx="19.5176" cy="26.5498" r="15.9625" gradientTransform="matrix(1 0 -0.0258 1.2083 0.1182 -5.5303)" gradientUnits="userSpaceOnUse">
			<stop  offset="0" style="stop-color:#0099FF;stop-opacity:0.2471"/>
			<stop  offset="1" style="stop-color:#324CA1;stop-opacity:0"/>
		</radialGradient>
		<path fill-rule="evenodd" clip-rule="evenodd" fill="url(#SVGID_2_)" d="M2.75,26.1c0.133-5.3,1.9-9.817,5.3-13.55
			C11.45,8.85,15.5,7,20.2,7s8.666,1.85,11.899,5.55c3.233,3.733,4.801,8.25,4.7,13.55c-0.133,5.233-1.899,9.716-5.3,13.45
			s-7.45,5.601-12.15,5.601c-4.667,0-8.633-1.867-11.899-5.601C4.183,35.816,2.617,31.333,2.75,26.1z"/>
	</g>
	<g>
		<radialGradient id="SVGID_3_" cx="19.3496" cy="42.8496" r="29.65" gradientUnits="userSpaceOnUse">
			<stop  offset="0" style="stop-color:#D5E3FA"/>
			<stop  offset="0.1647" style="stop-color:#7691CF;stop-opacity:0.8353"/>
			<stop  offset="0.4118" style="stop-color:#324CA1;stop-opacity:0.5882"/>
			<stop  offset="1" style="stop-color:#324CA1;stop-opacity:0"/>
		</radialGradient>
		<path fill-rule="evenodd" clip-rule="evenodd" fill="url(#SVGID_3_)" d="M26.35,23.75c0.067,0.767,0.034,1.517-0.1,2.25
			c-0.066,2.3-0.333,4.4-0.8,6.3c-0.3,1.2-0.684,2.334-1.15,3.4c-2.333,5.399-3.017,8.684-2.05,9.85L22,45.45h-0.05
			c0.033,0.033,0.083,0.066,0.149,0.1c-1.8,1.334-3.7,0.733-5.7-1.8c-3.833-4.467-5-9.634-3.5-15.5c0.4-4.5,2.867-9.317,7.4-14.45
			C24.066,17.3,26.083,20.617,26.35,23.75z"/>
	</g>
	<g>
		<radialGradient id="SVGID_4_" cx="20.3496" cy="44.75" r="28.25" gradientUnits="userSpaceOnUse">
			<stop  offset="0" style="stop-color:#D5E3FA"/>
			<stop  offset="0.1647" style="stop-color:#7691CF;stop-opacity:0.8353"/>
			<stop  offset="0.4118" style="stop-color:#324CA1;stop-opacity:0.5882"/>
			<stop  offset="1" style="stop-color:#324CA1;stop-opacity:0"/>
		</radialGradient>
		<path fill-rule="evenodd" clip-rule="evenodd" fill="url(#SVGID_4_)" d="M16.45,43.8c-0.4-0.6-0.75-1.184-1.05-1.75
			c-0.033-0.033-0.05-0.066-0.05-0.1c-1.867-3.4-2.217-7.233-1.05-11.5c1.333-6.2,2.983-10.684,4.95-13.45
			c3.6,4.633,5.634,8.717,6.1,12.25c0.434,3.533,0.517,6.55,0.25,9.05c-0.267,2.467-0.866,4.566-1.8,6.3
			c-0.899,1.767-1.517,2.867-1.85,3.301c-0.9,1.399-1.983,1.316-3.25-0.25C17.6,45.55,16.85,44.267,16.45,43.8z"/>
	</g>
	<g>
		
			<radialGradient id="SVGID_5_" cx="-11.2783" cy="48.2861" r="1.1524" fx="-11.1201" fy="48.2861" gradientTransform="matrix(0.9111 -0.4122 2.9611 4.2301 -114.8049 -164.0061)" gradientUnits="userSpaceOnUse">
			<stop  offset="0.1804" style="stop-color:#55BFF2"/>
			<stop  offset="1" style="stop-color:#54BDF0;stop-opacity:0"/>
		</radialGradient>
		<path fill-rule="evenodd" clip-rule="evenodd" fill="url(#SVGID_5_)" d="M14.75,40.3c0.367-0.2,1,0.117,1.9,0.95
			c0.9,0.767,1.8,1.8,2.7,3.1c0.467,0.7,1.167,2.617,2.101,5.75c-0.4,2.534-1.316,2.434-2.75-0.3c-1.4-2.8-2.1-4.217-2.1-4.25
			c-0.833-1.267-1.467-2.416-1.9-3.45C14.3,41.1,14.317,40.5,14.75,40.3z"/>
	</g>
	<g>
		
			<radialGradient id="SVGID_6_" cx="-41.3135" cy="-38.0684" r="1.0165" fx="-41.174" fy="-38.0684" gradientTransform="matrix(-0.9592 -0.2828 -2.275 4.5253 -103.9804 206.8362)" gradientUnits="userSpaceOnUse">
			<stop  offset="0.1804" style="stop-color:#55BFF2"/>
			<stop  offset="1" style="stop-color:#54BDF0;stop-opacity:0"/>
		</radialGradient>
		<path fill-rule="evenodd" clip-rule="evenodd" fill="url(#SVGID_6_)" d="M25.45,39.4c0.5,0.199,0.633,0.933,0.399,2.199
			c-0.3,1.233-0.833,2.667-1.6,4.301l-0.6,1.35l-3.301,1.9c0.034-0.067,0.084-0.117,0.15-0.15l-0.05-3.4
			c0.133-0.267,0.25-0.517,0.35-0.75c0.834-1.633,1.7-2.966,2.601-4C24.3,39.783,24.983,39.3,25.45,39.4z"/>
	</g>
	<g>
		<g>
			<path fill-rule="evenodd" clip-rule="evenodd" fill="#FFFBE8" d="M21.7,12.3c0.033,0,0.05-0.017,0.05-0.05l0.05-0.05
				c0.033,0,0.066,0,0.101,0v-0.05c0.033,0.033,0.083,0.05,0.149,0.05l0.05,0.05c0.034,0,0.051,0.017,0.051,0.05v0.1
				c0,0.033,0.017,0.05,0.05,0.05v0.1c-0.033,0-0.05,0.017-0.05,0.05v0.1L22.1,12.75c-0.033,0-0.066,0.033-0.1,0.1
				c-0.033-0.033-0.066-0.033-0.1,0c-0.067-0.033-0.101-0.033-0.101,0l-0.05-0.1c-0.033,0-0.05-0.017-0.05-0.05v-0.05
				c-0.033,0-0.05-0.017-0.05-0.05v-0.05c0-0.033,0-0.066,0-0.1V12.4c0-0.033,0.017-0.05,0.05-0.05V12.3z M21.45,14.5
				c0-0.033,0-0.067,0-0.1l0.05-0.05c0-0.033,0.017-0.05,0.05-0.05c0.033-0.033,0.066-0.066,0.101-0.1H21.8
				c0.033,0,0.066,0.017,0.101,0.05c0,0.033,0.017,0.067,0.05,0.1c0,0.033,0.017,0.05,0.05,0.05c-0.033,0.033-0.033,0.05,0,0.05v0.1
				c-0.033,0-0.05,0.017-0.05,0.05v0.1l-0.05,0.05c-0.034,0-0.067,0.017-0.101,0.05c0,0.034-0.017,0.05-0.05,0.05
				c-0.066,0-0.116-0.017-0.15-0.05l-0.05-0.05c-0.033,0-0.05-0.017-0.05-0.05h-0.05V14.5z M22.05,16.75V16.7
				c0.033,0,0.05-0.017,0.05-0.05s0.017-0.05,0.051-0.05h0.1v-0.05c0.033,0.034,0.066,0.05,0.1,0.05c0.034,0,0.067,0.017,0.101,0.05
				l0.05,0.05c-0.033,0.033-0.033,0.05,0,0.05c0,0.033,0,0.067,0,0.1v0.1c0,0.033,0,0.066,0,0.1h-0.05c0,0.034-0.017,0.05-0.05,0.05
				l-0.051,0.05c-0.033,0-0.066,0.017-0.1,0.05l-0.1-0.05L22.1,17.1c-0.033,0-0.05-0.017-0.05-0.05H22V16.8
				C22,16.767,22.017,16.75,22.05,16.75z M22.75,16.85c0.033-0.033,0.066-0.067,0.1-0.1h0.101c0.033,0,0.066,0,0.1,0
				c0,0.033,0.017,0.067,0.05,0.1h0.051v0.4c-0.034,0-0.051,0.017-0.051,0.05l-0.05,0.05c-0.066,0-0.116,0-0.149,0
				c-0.034,0-0.067,0-0.101,0s-0.05-0.017-0.05-0.05l-0.05-0.05c0-0.067-0.017-0.1-0.05-0.1c0-0.033,0-0.066,0-0.1V17l0.05-0.05
				C22.7,16.917,22.717,16.883,22.75,16.85z M24.55,16.25l0.05-0.05c0.067,0.033,0.117,0.05,0.15,0.05s0.05,0.017,0.05,0.05
				l0.05,0.05v0.05l0.051,0.1v0.1l-0.051,0.05c0,0.033,0,0.067,0,0.1H24.8c-0.033,0-0.066,0.033-0.1,0.1c-0.033,0-0.066,0-0.101,0
				h-0.1c-0.033-0.033-0.066-0.05-0.1-0.05c0-0.033-0.017-0.05-0.051-0.05V16.7c0-0.034-0.017-0.05-0.05-0.05V16.6
				c0-0.033,0.017-0.05,0.05-0.05V16.5c0-0.033,0-0.067,0-0.1s0.017-0.05,0.051-0.05c0-0.033,0.017-0.05,0.05-0.05
				c0-0.033,0.017-0.05,0.05-0.05H24.55z M23.15,19.65c0,0.033,0,0.067,0,0.1v0.2c-0.034,0-0.051,0.017-0.051,0.05L23,20.1
				c-0.033,0-0.083,0.017-0.15,0.05l-0.199-0.2V19.8c-0.033-0.033-0.033-0.049,0-0.05c-0.034,0-0.051-0.017-0.051-0.05
				c0-0.034,0.017-0.067,0.051-0.1h0.05c0-0.033,0.017-0.05,0.05-0.05c0-0.033,0.017-0.066,0.05-0.1H22.9c0.033,0,0.066,0,0.1,0
				s0.066,0.033,0.1,0.1l0.051,0.05V19.65z M22.85,21.55c0.034,0,0.051,0.017,0.051,0.05s0.017,0.05,0.05,0.05v0.3l-0.101,0.1H22.8
				c-0.033,0.034-0.066,0.067-0.1,0.1c-0.066,0-0.101-0.017-0.101-0.05c-0.033-0.033-0.066-0.05-0.1-0.05
				c0-0.033-0.017-0.05-0.05-0.05v-0.15c0-0.033,0-0.067,0-0.1v-0.1c0-0.033,0.017-0.05,0.05-0.05l0.05-0.05
				c0-0.033,0.017-0.05,0.05-0.05c0.034,0,0.067,0,0.101,0l0.05-0.05c0,0.033,0.017,0.05,0.05,0.05S22.85,21.517,22.85,21.55z
				 M23.3,23.05c-0.033-0.033-0.033-0.05,0-0.05v-0.05l0.05-0.05H23.4c0-0.033,0.017-0.066,0.05-0.1h0.05
				c0.066-0.033,0.116-0.033,0.15,0l0.05,0.1h0.05c-0.033,0.033-0.033,0.05,0,0.05V23c0,0.033,0.017,0.05,0.05,0.05v0.05l-0.05,0.05
				v0.1c-0.033,0-0.05,0.017-0.05,0.05c-0.033,0-0.066,0.017-0.101,0.05c-0.033,0-0.066,0.017-0.1,0.05
				c-0.033,0-0.05-0.017-0.05-0.05c-0.033-0.033-0.066-0.05-0.101-0.05l-0.05-0.05v-0.1c-0.033-0.033-0.033-0.05,0-0.05V23.05z
				 M23.1,23.85c0.034,0,0.067,0,0.101,0s0.066,0,0.1,0s0.066,0.017,0.101,0.05c0,0.033,0.017,0.067,0.05,0.1
				c-0.033,0-0.033,0.017,0,0.05v0.25c-0.033,0-0.05,0.017-0.05,0.05l-0.101,0.1c-0.033,0-0.066,0.017-0.1,0.05
				c-0.033-0.033-0.066-0.05-0.101-0.05l-0.05-0.05c0-0.033-0.017-0.05-0.05-0.05c-0.033-0.033-0.05-0.067-0.05-0.1
				S22.967,24.2,23,24.2v-0.05c-0.033-0.033-0.033-0.066,0-0.1c0-0.033,0.017-0.05,0.05-0.05c0-0.033,0.017-0.05,0.05-0.05V23.85z
				 M24,24.05c0,0.034,0.017,0.05,0.05,0.05c0,0.033,0.017,0.05,0.05,0.05v0.05l0.051,0.05c0,0.033,0,0.067,0,0.1v0.1
				c-0.034,0-0.051,0.017-0.051,0.05v0.05c-0.033,0-0.05,0.017-0.05,0.05L24,24.65c-0.066,0-0.116,0-0.15,0c-0.033,0-0.066,0-0.1,0
				s-0.05-0.017-0.05-0.05s-0.017-0.05-0.05-0.05V24.5c0-0.033-0.017-0.05-0.051-0.05V24.3l0.051-0.05c0-0.067,0.017-0.1,0.05-0.1
				V24.1c0.033,0,0.066-0.017,0.1-0.05H23.9C23.934,24.05,23.967,24.05,24,24.05z M25.3,23.75l0.05-0.05v-0.05L25.4,23.6
				c0.033-0.033,0.066-0.067,0.1-0.1h0.1c0.034,0,0.067,0,0.101,0c0.033,0.033,0.066,0.05,0.1,0.05v0.05
				c0,0.033,0.017,0.05,0.05,0.05c0,0.033,0,0.067,0,0.1v0.2c-0.033,0-0.05,0.017-0.05,0.05c-0.033,0-0.05,0.017-0.05,0.05
				L25.7,24.1c-0.033,0.033-0.084,0.05-0.15,0.05c-0.033,0-0.066-0.017-0.1-0.05c-0.033,0-0.05-0.017-0.05-0.05L25.35,24
				c0-0.033-0.017-0.05-0.05-0.05V23.75z M15.2,16c-0.034,0.033-0.05,0.067-0.05,0.1l0.05,0.05c-0.034,0-0.05,0.017-0.05,0.05
				c-0.033,0-0.066,0.017-0.1,0.05c-0.033,0.033-0.066,0.05-0.1,0.05c-0.034,0-0.083-0.017-0.15-0.05V16.2l-0.1-0.1
				c0-0.033,0-0.067,0-0.1h-0.05v-0.1l0.05-0.05V15.8l0.05-0.05V15.7c0.033-0.034,0.05-0.067,0.05-0.1c0.034,0,0.083,0,0.15,0
				c0.033,0,0.066,0,0.1,0l0.05,0.1c0.033,0,0.05,0.017,0.05,0.05v0.05l0.05,0.05V16z M14.8,20.4h0.1c0,0.033,0.017,0.067,0.05,0.1
				c0.033,0,0.05,0.017,0.05,0.05v0.05h0.05v0.2c0,0.034-0.017,0.05-0.05,0.05v0.1c-0.033,0-0.067,0.017-0.1,0.05
				c-0.033,0-0.066,0-0.1,0c-0.033,0-0.066,0-0.1,0c-0.034,0-0.05-0.017-0.05-0.05L14.6,20.9v-0.05c-0.033,0-0.05-0.017-0.05-0.05
				c-0.033-0.066-0.033-0.1,0-0.1v-0.1c0-0.033,0.017-0.05,0.05-0.05c0-0.033,0.017-0.05,0.05-0.05c0-0.033,0-0.067,0-0.1
				C14.683,20.4,14.733,20.4,14.8,20.4z M15.1,24.65c0.033,0.033,0.066,0.05,0.1,0.05c0.033,0.033,0.066,0.05,0.1,0.05
				c0,0.033,0.017,0.067,0.05,0.1v0.25H15.3v0.05l-0.05,0.05c-0.067,0-0.117,0.017-0.15,0.05c-0.033,0-0.067,0-0.1,0V25.2l-0.1-0.1
				v-0.05c-0.033,0-0.05-0.017-0.05-0.05v-0.1l0.05-0.05V24.8l0.05-0.05H15c0-0.033,0.033-0.05,0.1-0.05V24.65z M15.75,22.9
				c0.033,0,0.083,0,0.15,0c0.033,0,0.067,0,0.1,0l0.05,0.1h0.05c0,0.033,0,0.067,0,0.1h0.05c0,0.033,0,0.066,0,0.1v0.1l-0.05,0.05
				c0,0.033,0.017,0.05,0.05,0.05c-0.033,0.033-0.05,0.067-0.05,0.1c-0.033,0-0.067,0.017-0.1,0.05c-0.033,0-0.067,0-0.1,0
				s-0.083,0-0.15,0V23.5l-0.05-0.1h-0.05c0-0.033,0-0.066,0-0.1H15.6v-0.1c0-0.034,0.017-0.05,0.05-0.05V23.1
				c0-0.033,0.017-0.05,0.05-0.05V23L15.75,22.9z M15.6,27.7c0.033,0,0.083,0,0.15,0h0.1c0,0.033,0.017,0.066,0.05,0.1h0.05v0.05
				c0,0.034,0.017,0.051,0.05,0.051V28.1l-0.05,0.051v0.05c-0.034,0.033-0.067,0.05-0.1,0.05c-0.033,0.033-0.067,0.05-0.1,0.05
				s-0.067,0-0.1,0l-0.1-0.1V28.1H15.5V27.9l0.05-0.051V27.8h0.05C15.6,27.767,15.6,27.733,15.6,27.7z M14.65,27.8l0.1,0.101v0.05
				L14.8,28c0,0.033,0.017,0.05,0.05,0.05v0.101c-0.033,0-0.05,0.017-0.05,0.05l-0.1,0.1c-0.034,0-0.067,0-0.1,0s-0.083,0-0.15,0
				H14.4v-0.1c-0.033,0-0.05-0.017-0.05-0.05c-0.033-0.034-0.05-0.067-0.05-0.101V28h0.05v-0.05c0-0.033,0.017-0.05,0.05-0.05h0.05
				c-0.034-0.034-0.034-0.067,0-0.101c0.033,0,0.083,0,0.15,0H14.65z M15,30.9V31.1c0,0.034-0.017,0.067-0.05,0.101
				c-0.034,0-0.05,0.017-0.05,0.05h-0.1c-0.033,0-0.066,0-0.1,0l-0.05-0.05v-0.05l-0.1-0.101v-0.1c0-0.033,0.017-0.05,0.05-0.05
				c0-0.034,0-0.067,0-0.101h0.05v-0.05c0.033,0,0.083,0,0.15,0h0.1l0.05,0.05H15C15,30.833,15,30.866,15,30.9z M15.8,32.2
				c0-0.033,0.017-0.05,0.05-0.05c0-0.034,0-0.067,0-0.101h0.05L15.95,32h0.1v-0.05c0.034,0.033,0.067,0.05,0.1,0.05
				s0.067,0.017,0.1,0.05l0.05,0.05v0.25L16.25,32.4v0.05c-0.033,0-0.05,0.017-0.05,0.05c-0.067,0-0.117,0.017-0.15,0.05
				c-0.033-0.033-0.066-0.05-0.1-0.05c-0.034-0.033-0.05-0.066-0.05-0.1h-0.05c0-0.034,0-0.067,0-0.101H15.8V32.2z M15.65,35.1
				c0.033,0.034,0.05,0.067,0.05,0.101v0.05c0.033,0,0.05,0.017,0.05,0.05l0.05,0.05V35.4l-0.05,0.05v0.05
				c-0.033,0-0.05,0.017-0.05,0.05c-0.034,0-0.05,0.017-0.05,0.05c-0.033,0-0.066,0-0.1,0c-0.033,0-0.066,0-0.1,0H15.4
				c-0.033-0.033-0.033-0.066,0-0.1h-0.05v-0.05L15.3,35.4V35.35c-0.033-0.033-0.033-0.05,0-0.05c0-0.033,0.017-0.05,0.05-0.05V35.2
				l0.05-0.05V35.1c0.067,0,0.117,0,0.15,0H15.65z M15.55,38.1h0.05v-0.05c0.033,0,0.083,0,0.15,0V38l0.1,0.05h0.05
				c0,0.033,0.017,0.05,0.05,0.05V38.4l-0.1,0.1c-0.067,0-0.1,0.017-0.1,0.05c-0.033-0.033-0.067-0.05-0.1-0.05
				s-0.05-0.017-0.05-0.05V38.4c-0.033,0-0.05-0.017-0.05-0.051c-0.033-0.033-0.05-0.066-0.05-0.1c0.033,0,0.05-0.017,0.05-0.05
				V38.1z M24.05,28.9c-0.033,0-0.033,0.017,0,0.05H24V29c-0.033,0-0.05,0.017-0.05,0.05c-0.033,0-0.066,0.017-0.101,0.05H23.8
				c-0.033,0-0.066,0-0.1,0c-0.033-0.033-0.066-0.05-0.101-0.05v-0.1h-0.05V28.8c0-0.033,0.017-0.05,0.05-0.05V28.7
				c0-0.033,0.017-0.05,0.051-0.05h0.05c0.033,0,0.066,0,0.1,0V28.6c0.033,0,0.066,0.017,0.101,0.051h0.05L24,28.7v0.05
				c0,0.033,0.017,0.05,0.05,0.05V28.9z M24.6,30.1L24.7,30.2v0.05h0.05c0,0.033,0,0.066,0,0.1V30.4c-0.033,0.033-0.033,0.066,0,0.1
				H24.7l-0.05,0.1H24.6c-0.033,0.034-0.066,0.051-0.1,0.051h-0.1L24.35,30.6c-0.033,0-0.05-0.017-0.05-0.05s-0.017-0.05-0.05-0.05
				v-0.15c0-0.033,0-0.066,0-0.1h0.05V30.2c0-0.033,0.017-0.05,0.05-0.05c0.034-0.034,0.067-0.051,0.101-0.051h0.05
				C24.533,30.066,24.566,30.066,24.6,30.1z M24.1,31.55C24,31.684,23.9,31.8,23.8,31.9c-0.033,0-0.05-0.017-0.05-0.051L23.7,31.8
				v-0.05c-0.033,0-0.033-0.017,0-0.05v-0.05c0-0.034,0-0.067,0-0.101c0.033,0,0.05-0.017,0.05-0.05h0.05
				c0.033-0.033,0.066-0.05,0.101-0.05c0.033,0,0.066,0.017,0.1,0.05h0.05C24.05,31.533,24.066,31.55,24.1,31.55z M24.8,35.85
				l0.05,0.051c0.034,0,0.067,0.017,0.101,0.05L25,36c-0.033,0-0.033,0.017,0,0.05v0.2c-0.033,0-0.05,0.017-0.05,0.05
				c-0.001-0.032-0.018-0.032-0.05,0c0,0.033-0.017,0.05-0.051,0.05c-0.033,0-0.066,0.017-0.1,0.051c-0.033,0-0.066-0.017-0.1-0.051
				H24.6c-0.033-0.033-0.033-0.05,0-0.05l-0.05-0.05c-0.033-0.033-0.033-0.05,0-0.05V36l0.05-0.05
				c0.034-0.033,0.067-0.05,0.101-0.05h0.1V35.85z M25.05,38.8v0.05c-0.1,0.101-0.2,0.217-0.3,0.351c0-0.033-0.017-0.05-0.05-0.05
				L24.65,39.1V38.9c0-0.034,0.017-0.051,0.05-0.051c0-0.033,0.017-0.05,0.05-0.05l0.05-0.05h0.05L24.9,38.7
				c0.033,0.033,0.066,0.05,0.1,0.05L25.05,38.8z"/>
			<path fill-rule="evenodd" clip-rule="evenodd" fill="#50B1DF" d="M15.15,34.35H15.1c0,0.034-0.017,0.051-0.05,0.051
				c-0.033,0.033-0.033,0.066,0,0.1c-0.033,0-0.066,0-0.1,0h-0.1l-0.1-0.1c-0.033,0-0.033-0.017,0-0.051H14.7V34.3
				c-0.034-0.033-0.034-0.05,0-0.05v-0.1l0.05-0.051v-0.05h0.05c0.034,0,0.083,0,0.15,0V34L15,34.05l0.1,0.05v0.051l0.05,0.05V34.35
				z M15.75,41.3c0.033,0,0.083,0,0.15,0h0.05l0.1,0.05V41.4c0,0.033,0.017,0.05,0.05,0.05V41.6L16,41.7
				c-0.033,0.033-0.033,0.05,0,0.05c-0.033,0.033-0.067,0.05-0.1,0.05c-0.066,0-0.1-0.017-0.1-0.05c-0.033,0-0.05-0.017-0.05-0.05
				H15.7c-0.033-0.033-0.033-0.05,0-0.05c-0.034-0.001-0.05-0.018-0.05-0.051V41.45c0-0.033,0.017-0.05,0.05-0.05V41.35
				C15.733,41.35,15.75,41.333,15.75,41.3z"/>
		</g>
	</g>
</g>
</svg>
