<?xml version="1.0" encoding="utf-8"?>
<!-- Generator: Adobe Illustrator 16.0.3, SVG Export Plug-In . SVG Version: 6.00 Build 0)  -->
<!DOCTYPE svg PUBLIC "-//W3C//DTD SVG 1.0//EN" "http://www.w3.org/TR/2001/REC-SVG-20010904/DTD/svg10.dtd">
<svg version="1.0" xmlns="http://www.w3.org/2000/svg" xmlns:xlink="http://www.w3.org/1999/xlink" x="0px" y="0px" width="60.75px"
	 height="142.75px" viewBox="0 0 60.75 142.75" enable-background="new 0 0 60.75 142.75" xml:space="preserve">
<g id="Layer_1">
</g>
<g id="Layer_2">
	<g>
		
			<radialGradient id="SVGID_1_" cx="-615.0239" cy="95.167" r="3.9224" fx="-613.655" fy="95.167" gradientTransform="matrix(-0.1912 -0.9815 1.893 -1.7432 -272.9239 -403.131)" gradientUnits="userSpaceOnUse">
			<stop  offset="0" style="stop-color:#FFFFFF"/>
			<stop  offset="0.2" style="stop-color:#FFFFFF"/>
			<stop  offset="0.3765" style="stop-color:#E6E5E5"/>
			<stop  offset="1" style="stop-color:#C4C0C0"/>
		</radialGradient>
		<path fill-rule="evenodd" clip-rule="evenodd" fill="url(#SVGID_1_)" d="M28,36.525c-0.182-0.285-0.39-0.311-0.625-0.075l-5.4,4.1
			c-0.141,0.106-0.274,0.29-0.4,0.55c-0.119-0.09-0.219-0.273-0.3-0.55c-0.167-0.466-0.25-1.133-0.25-2
			c0.033-0.8,0.15-1.566,0.35-2.3c0.12-0.459,0.253-0.817,0.4-1.075c0.076,0.005,0.159-0.02,0.25-0.075l5.45-3.85
			c0.189-0.154,0.348-0.379,0.476-0.675c0.123,0.067,0.231,0.225,0.325,0.475c0.199,0.467,0.283,1.133,0.25,2
			c0,0.9-0.084,1.733-0.25,2.5C28.2,35.925,28.108,36.25,28,36.525z"/>
		
			<radialGradient id="SVGID_2_" cx="-620.1235" cy="92.5371" r="3.9272" fx="-618.7529" fy="92.5371" gradientTransform="matrix(-0.1973 -0.9803 1.8747 -1.7442 -271.1327 -406.1235)" gradientUnits="userSpaceOnUse">
			<stop  offset="0" style="stop-color:#FFFFFF"/>
			<stop  offset="0.2" style="stop-color:#FFFFFF"/>
			<stop  offset="0.3765" style="stop-color:#E6E5E5"/>
			<stop  offset="1" style="stop-color:#C4C0C0"/>
		</radialGradient>
		<path fill-rule="evenodd" clip-rule="evenodd" fill="url(#SVGID_2_)" d="M27.85,42.325c-0.184-0.383-0.408-0.441-0.675-0.175
			l-5.2,4.15c-0.147,0.11-0.28,0.311-0.4,0.6c-0.141-0.085-0.258-0.286-0.35-0.6c-0.167-0.466-0.25-1.133-0.25-2
			c0.033-0.8,0.133-1.566,0.3-2.3c0.094-0.361,0.194-0.661,0.3-0.9c0.125-0.261,0.259-0.444,0.4-0.55l5.4-4.1
			c0.235-0.236,0.443-0.21,0.625,0.075c0.04,0.068,0.082,0.16,0.125,0.275c0.2,0.467,0.3,1.133,0.3,2c0,0.9-0.083,1.733-0.25,2.5
			C28.093,41.71,27.984,42.052,27.85,42.325z"/>
		
			<radialGradient id="SVGID_3_" cx="-626.9692" cy="85.1992" r="3.9875" fx="-625.5775" fy="85.1992" gradientTransform="matrix(-0.2226 -0.9749 1.7743 -1.7367 -266.0372 -417.13)" gradientUnits="userSpaceOnUse">
			<stop  offset="0" style="stop-color:#FFFFFF"/>
			<stop  offset="0.2" style="stop-color:#FFFFFF"/>
			<stop  offset="0.3765" style="stop-color:#E6E5E5"/>
			<stop  offset="1" style="stop-color:#C4C0C0"/>
		</radialGradient>
		<path fill-rule="evenodd" clip-rule="evenodd" fill="url(#SVGID_3_)" d="M27.925,47.9c-0.148-0.104-0.298-0.07-0.45,0.1l-5.2,4.2
			c-0.14,0.087-0.265,0.262-0.375,0.525c-0.2-0.021-0.359-0.23-0.475-0.625c-0.2-0.467-0.316-1.133-0.35-2
			c0.033-0.833,0.117-1.617,0.25-2.35c0.075-0.344,0.158-0.627,0.25-0.85c0.12-0.29,0.253-0.49,0.4-0.6l5.2-4.15
			c0.267-0.266,0.491-0.208,0.675,0.175c0.028,0.057,0.053,0.115,0.075,0.175c0.233,0.467,0.367,1.15,0.4,2.05
			c0,0.9-0.066,1.733-0.2,2.5C28.072,47.377,28.006,47.661,27.925,47.9z"/>
		
			<radialGradient id="SVGID_4_" cx="-631.8169" cy="82.665" r="3.9932" fx="-630.4232" fy="82.665" gradientTransform="matrix(-0.2285 -0.9735 1.7624 -1.7373 -265.0932 -419.4314)" gradientUnits="userSpaceOnUse">
			<stop  offset="0" style="stop-color:#FFFFFF"/>
			<stop  offset="0.2" style="stop-color:#FFFFFF"/>
			<stop  offset="0.3765" style="stop-color:#E6E5E5"/>
			<stop  offset="1" style="stop-color:#C4C0C0"/>
		</radialGradient>
		<path fill-rule="evenodd" clip-rule="evenodd" fill="url(#SVGID_4_)" d="M21.9,52.725c0.11-0.263,0.235-0.438,0.375-0.525l5.2-4.2
			c0.152-0.17,0.302-0.204,0.45-0.1c0.1,0.089,0.199,0.256,0.3,0.5c0.2,0.467,0.317,1.133,0.351,2c0.033,0.9-0.017,1.75-0.15,2.55
			c-0.03,0.192-0.063,0.367-0.1,0.525c-0.208-0.337-0.424-0.379-0.65-0.125l-5,4.3c-0.174,0.149-0.332,0.474-0.475,0.975
			c-0.179-0.027-0.337-0.235-0.475-0.625c-0.167-0.467-0.267-1.133-0.3-2c0-0.833,0.067-1.617,0.2-2.35
			C21.704,53.271,21.796,52.962,21.9,52.725z"/>
		
			<radialGradient id="SVGID_5_" cx="-642.8755" cy="74.8916" r="4.1234" fx="-641.4363" fy="74.8916" gradientTransform="matrix(-0.2546 -0.967 1.6249 -1.7431 -260.0171 -433.6399)" gradientUnits="userSpaceOnUse">
			<stop  offset="0" style="stop-color:#FFFFFF"/>
			<stop  offset="0.2" style="stop-color:#FFFFFF"/>
			<stop  offset="0.3765" style="stop-color:#E6E5E5"/>
			<stop  offset="1" style="stop-color:#C4C0C0"/>
		</radialGradient>
		<path fill-rule="evenodd" clip-rule="evenodd" fill="url(#SVGID_5_)" d="M28.725,58.975c-0.215-0.328-0.432-0.37-0.649-0.125
			l-4.75,4.3c-0.167,0.167-0.309,0.542-0.425,1.125c-0.204-0.003-0.378-0.211-0.525-0.625c-0.2-0.5-0.333-1.184-0.4-2.051
			c-0.033-0.866,0-1.667,0.1-2.399c0.042-0.212,0.084-0.404,0.125-0.575c0.143-0.501,0.301-0.826,0.475-0.975l5-4.3
			c0.227-0.254,0.442-0.212,0.65,0.125c0.031,0.068,0.064,0.143,0.1,0.225c0.233,0.5,0.384,1.2,0.45,2.1
			c0.066,0.934,0.05,1.8-0.05,2.6C28.801,58.611,28.768,58.802,28.725,58.975z"/>
		
			<radialGradient id="SVGID_6_" cx="-645.8052" cy="63.6768" r="4.1558" fx="-644.3547" fy="63.6768" gradientTransform="matrix(-0.2918 -0.9565 1.519 -1.7175 -259.1674 -445.3441)" gradientUnits="userSpaceOnUse">
			<stop  offset="0" style="stop-color:#FFFFFF"/>
			<stop  offset="0.2" style="stop-color:#FFFFFF"/>
			<stop  offset="0.3765" style="stop-color:#E6E5E5"/>
			<stop  offset="1" style="stop-color:#C4C0C0"/>
		</radialGradient>
		<path fill-rule="evenodd" clip-rule="evenodd" fill="url(#SVGID_6_)" d="M22.9,64.275c0.117-0.583,0.258-0.958,0.425-1.125
			l4.75-4.3c0.218-0.245,0.435-0.203,0.649,0.125c0.052,0.079,0.102,0.171,0.15,0.275c0.233,0.467,0.4,1.15,0.5,2.05
			c0.089,0.832,0.114,1.607,0.075,2.325c-0.212-0.204-0.403-0.195-0.575,0.025l-4.45,4.699c-0.239,0.24-0.381,0.698-0.425,1.375
			c-0.252,0.063-0.478-0.146-0.675-0.625c-0.233-0.466-0.4-1.149-0.5-2.05c-0.067-0.833-0.067-1.633,0-2.399
			C22.847,64.518,22.872,64.393,22.9,64.275z"/>
		
			<radialGradient id="SVGID_7_" cx="-650.2617" cy="42.0449" r="4.0762" fx="-648.8391" fy="42.0449" gradientTransform="matrix(-0.3619 -0.9322 1.4474 -1.8798 -269.1317 -459.2104)" gradientUnits="userSpaceOnUse">
			<stop  offset="0" style="stop-color:#FFFFFF"/>
			<stop  offset="0.2" style="stop-color:#FFFFFF"/>
			<stop  offset="0.3765" style="stop-color:#E6E5E5"/>
			<stop  offset="1" style="stop-color:#C4C0C0"/>
		</radialGradient>
		<path fill-rule="evenodd" clip-rule="evenodd" fill="url(#SVGID_7_)" d="M30.525,68.475c-0.254-0.16-0.454-0.119-0.601,0.125
			l-4.1,5.351c-0.116,0.154-0.191,0.396-0.225,0.725L25.575,74.7c-0.3,0.233-0.6,0.083-0.9-0.45c-0.233-0.434-0.417-1.083-0.55-1.95
			c-0.133-0.833-0.183-1.616-0.15-2.35c0.003-0.081,0.012-0.156,0.025-0.226c0.044-0.677,0.186-1.135,0.425-1.375l4.45-4.699
			c0.172-0.221,0.363-0.229,0.575-0.025c0.07,0.084,0.146,0.192,0.225,0.325c0.267,0.467,0.483,1.149,0.65,2.05
			C30.49,66.895,30.558,67.719,30.525,68.475z"/>
		
			<radialGradient id="SVGID_8_" cx="-642.1802" cy="-5.7725" r="4.0823" fx="-640.7554" fy="-5.7725" gradientTransform="matrix(-0.4991 -0.8665 1.2768 -2.073 -284.6188 -495.2416)" gradientUnits="userSpaceOnUse">
			<stop  offset="0" style="stop-color:#FFFFFF"/>
			<stop  offset="0.2" style="stop-color:#FFFFFF"/>
			<stop  offset="0.3765" style="stop-color:#E6E5E5"/>
			<stop  offset="1" style="stop-color:#C4C0C0"/>
		</radialGradient>
		<path fill-rule="evenodd" clip-rule="evenodd" fill="url(#SVGID_8_)" d="M32.225,72.6c-0.289-0.249-0.506-0.216-0.649,0.101
			l-3.351,5.75c-0.144,0.259-0.185,0.7-0.125,1.325l-0.225,0.274c-0.267,0.3-0.583,0.2-0.95-0.3c-0.3-0.4-0.6-1.017-0.9-1.85
			c-0.233-0.834-0.383-1.617-0.45-2.351c-0.014-0.337-0.006-0.629,0.025-0.875c0.034-0.329,0.109-0.57,0.225-0.725l4.1-5.351
			c0.146-0.244,0.347-0.285,0.601-0.125c0.093,0.067,0.192,0.159,0.3,0.275c0.333,0.467,0.633,1.116,0.899,1.95
			C31.949,71.373,32.116,72.007,32.225,72.6z"/>
		
			<radialGradient id="SVGID_9_" cx="-649.6006" cy="-31.7168" r="3.9837" fx="-648.2102" fy="-31.7168" gradientTransform="matrix(-0.5648 -0.8252 1.0198 -2.2686 -303.8729 -530.6726)" gradientUnits="userSpaceOnUse">
			<stop  offset="0" style="stop-color:#FFFFFF"/>
			<stop  offset="0.2" style="stop-color:#FFFFFF"/>
			<stop  offset="0.3765" style="stop-color:#E6E5E5"/>
			<stop  offset="1" style="stop-color:#C4C0C0"/>
		</radialGradient>
		<path fill-rule="evenodd" clip-rule="evenodd" fill="url(#SVGID_9_)" d="M34.3,77.325c-0.212-0.046-0.37,0.045-0.475,0.274
			l-2.95,6c-0.06,0.149-0.085,0.342-0.075,0.575L30.725,84.3c-0.233,0.3-0.55,0.233-0.949-0.2c-0.334-0.366-0.667-0.949-1-1.75
			c-0.301-0.8-0.517-1.55-0.65-2.25c-0.014-0.109-0.022-0.218-0.025-0.324c-0.06-0.625-0.019-1.066,0.125-1.325l3.351-5.75
			c0.144-0.316,0.36-0.35,0.649-0.101c0.05,0.046,0.101,0.096,0.15,0.15c0.333,0.4,0.7,1,1.1,1.8c0.367,0.8,0.617,1.584,0.75,2.351
			C34.254,77.048,34.278,77.19,34.3,77.325z"/>
		
			<radialGradient id="SVGID_10_" cx="-627.5059" cy="-88.3086" r="3.9875" fx="-626.1141" fy="-88.3086" gradientTransform="matrix(-0.6897 -0.7241 0.8464 -2.3197 -324.594 -577.0055)" gradientUnits="userSpaceOnUse">
			<stop  offset="0" style="stop-color:#FFFFFF"/>
			<stop  offset="0.2" style="stop-color:#FFFFFF"/>
			<stop  offset="0.3765" style="stop-color:#E6E5E5"/>
			<stop  offset="1" style="stop-color:#C4C0C0"/>
		</radialGradient>
		<path fill-rule="evenodd" clip-rule="evenodd" fill="url(#SVGID_10_)" d="M30.8,84.175c-0.01-0.233,0.016-0.426,0.075-0.575
			l2.95-6c0.104-0.229,0.263-0.32,0.475-0.274c0.121,0.025,0.263,0.1,0.425,0.225c0.434,0.334,0.884,0.867,1.351,1.601
			c0.476,0.729,0.817,1.43,1.024,2.1c-0.149-0.118-0.291-0.218-0.425-0.3c-0.5-0.233-0.767-0.15-0.8,0.25l-1.65,6.6
			c-0.038,0.214-0.005,0.489,0.101,0.825l-0.15,0.275c-0.2,0.366-0.533,0.35-1-0.051c-0.399-0.333-0.816-0.866-1.25-1.6
			c-0.399-0.7-0.7-1.384-0.899-2.05C30.896,84.796,30.821,84.454,30.8,84.175z"/>
		
			<radialGradient id="SVGID_11_" cx="-605.9502" cy="-147.252" r="3.8725" fx="-604.5986" fy="-147.252" gradientTransform="matrix(-0.7973 -0.6036 0.3647 -2.5694 -393.0776 -658.1526)" gradientUnits="userSpaceOnUse">
			<stop  offset="0" style="stop-color:#FFFFFF"/>
			<stop  offset="0.2" style="stop-color:#FFFFFF"/>
			<stop  offset="0.3765" style="stop-color:#E6E5E5"/>
			<stop  offset="1" style="stop-color:#C4C0C0"/>
		</radialGradient>
		<path fill-rule="evenodd" clip-rule="evenodd" fill="url(#SVGID_11_)" d="M39.825,84.7c-0.05,0.065-0.083,0.148-0.101,0.25
			l-1.55,6.6c-0.043,0.217-0.002,0.509,0.125,0.875L38.275,92.5c-0.134,0.366-0.45,0.4-0.95,0.1c-0.434-0.199-0.917-0.633-1.45-1.3
			c-0.5-0.633-0.9-1.267-1.2-1.899c-0.152-0.292-0.27-0.55-0.35-0.775c-0.105-0.336-0.139-0.611-0.101-0.825l1.65-6.6
			c0.033-0.4,0.3-0.483,0.8-0.25c0.134,0.082,0.275,0.182,0.425,0.3c0.325,0.262,0.684,0.612,1.075,1.05
			c0.634,0.634,1.117,1.3,1.45,2C39.696,84.442,39.763,84.576,39.825,84.7z"/>
		
			<radialGradient id="SVGID_12_" cx="-614.1538" cy="-142.1543" r="3.8558" fx="-612.808" fy="-142.1543" gradientTransform="matrix(-0.7878 -0.616 0.3436 -2.5676 -394.7423 -653.5851)" gradientUnits="userSpaceOnUse">
			<stop  offset="0" style="stop-color:#FFFFFF"/>
			<stop  offset="0.2" style="stop-color:#FFFFFF"/>
			<stop  offset="0.3765" style="stop-color:#E6E5E5"/>
			<stop  offset="1" style="stop-color:#C4C0C0"/>
		</radialGradient>
		<path fill-rule="evenodd" clip-rule="evenodd" fill="url(#SVGID_12_)" d="M38.3,92.425c-0.127-0.366-0.168-0.658-0.125-0.875
			l1.55-6.6c0.018-0.102,0.051-0.185,0.101-0.25c0.118-0.166,0.352-0.149,0.7,0.05c0.433,0.267,0.949,0.7,1.55,1.3
			c0.566,0.667,1.017,1.351,1.35,2.05c0.136,0.249,0.244,0.482,0.325,0.7c-0.119,0.03-0.194,0.131-0.225,0.3l-1.601,6.45
			c-0.045,0.224-0.003,0.523,0.125,0.9c-0.16,0.167-0.435,0.134-0.825-0.101c-0.399-0.233-0.866-0.683-1.399-1.35
			c-0.5-0.634-0.917-1.283-1.25-1.95C38.459,92.817,38.367,92.609,38.3,92.425z"/>
		
			<radialGradient id="SVGID_13_" cx="-619.8608" cy="-141.8892" r="3.881" fx="-618.5063" fy="-141.8892" gradientTransform="matrix(-0.7859 -0.6184 0.3575 -2.4929 -392.3792 -643.2298)" gradientUnits="userSpaceOnUse">
			<stop  offset="0" style="stop-color:#FFFFFF"/>
			<stop  offset="0.2" style="stop-color:#FFFFFF"/>
			<stop  offset="0.3765" style="stop-color:#E6E5E5"/>
			<stop  offset="1" style="stop-color:#C4C0C0"/>
		</radialGradient>
		<path fill-rule="evenodd" clip-rule="evenodd" fill="url(#SVGID_13_)" d="M42.05,96.45c-0.128-0.377-0.17-0.677-0.125-0.9
			l1.601-6.45c0.03-0.169,0.105-0.27,0.225-0.3c0.133-0.043,0.324,0.007,0.575,0.15c0.467,0.267,0.983,0.717,1.55,1.35
			c0.566,0.667,1.033,1.334,1.4,2c0.195,0.393,0.329,0.734,0.399,1.025c-0.022,0.04-0.039,0.082-0.05,0.125l-2.1,6.25
			c-0.063,0.211-0.056,0.494,0.024,0.85c-0.149,0.007-0.342-0.06-0.575-0.2c-0.399-0.233-0.866-0.683-1.399-1.35
			c-0.5-0.667-0.917-1.316-1.25-1.95C42.215,96.83,42.123,96.63,42.05,96.45z"/>
		
			<radialGradient id="SVGID_14_" cx="-640.9268" cy="-113.5698" r="3.8747" fx="-639.5744" fy="-113.5698" gradientTransform="matrix(-0.7355 -0.6775 0.5517 -2.4583 -361.0535 -615.2972)" gradientUnits="userSpaceOnUse">
			<stop  offset="0" style="stop-color:#FFFFFF"/>
			<stop  offset="0.2" style="stop-color:#FFFFFF"/>
			<stop  offset="0.3765" style="stop-color:#E6E5E5"/>
			<stop  offset="1" style="stop-color:#C4C0C0"/>
		</radialGradient>
		<path fill-rule="evenodd" clip-rule="evenodd" fill="url(#SVGID_14_)" d="M51.425,98.05v0.025l-2.7,5.975
			c-0.108,0.195-0.142,0.487-0.1,0.875c-0.127-0.026-0.276-0.102-0.45-0.225c-0.399-0.267-0.833-0.75-1.3-1.45s-0.833-1.366-1.1-2
			c-0.099-0.258-0.174-0.491-0.226-0.7c-0.08-0.355-0.088-0.639-0.024-0.85l2.1-6.25c0.011-0.043,0.027-0.085,0.05-0.125
			c0.113-0.285,0.363-0.293,0.75-0.025c0.434,0.267,0.9,0.75,1.4,1.45c0.533,0.733,0.934,1.45,1.2,2.15
			C51.242,97.335,51.376,97.718,51.425,98.05z"/>
		
			<radialGradient id="SVGID_15_" cx="-665.7695" cy="-71.1831" r="3.8817" fx="-664.4147" fy="-71.1831" gradientTransform="matrix(-0.6537 -0.7568 0.8244 -2.3765 -325.4595 -570.2891)" gradientUnits="userSpaceOnUse">
			<stop  offset="0" style="stop-color:#FFFFFF"/>
			<stop  offset="0.2" style="stop-color:#FFFFFF"/>
			<stop  offset="0.3765" style="stop-color:#E6E5E5"/>
			<stop  offset="1" style="stop-color:#C4C0C0"/>
		</radialGradient>
		<path fill-rule="evenodd" clip-rule="evenodd" fill="url(#SVGID_15_)" d="M54.7,103.1l-3.525,5.351
			c-0.146,0.22-0.213,0.569-0.2,1.05c-0.063-0.036-0.13-0.086-0.199-0.15c-0.367-0.333-0.75-0.866-1.15-1.6s-0.684-1.434-0.85-2.1
			c-0.07-0.268-0.12-0.509-0.15-0.726c-0.042-0.388-0.009-0.68,0.1-0.875l2.7-5.975V98.05c0.167-0.366,0.467-0.383,0.9-0.05
			c0.366,0.333,0.767,0.866,1.2,1.6c0.466,0.801,0.8,1.551,1,2.25C54.665,102.35,54.724,102.767,54.7,103.1z"/>
		
			<radialGradient id="SVGID_16_" cx="-688.1157" cy="-18.2344" r="3.8732" fx="-686.7639" fy="-18.2344" gradientTransform="matrix(-0.539 -0.8423 1.1586 -2.2365 -296.0667 -512.9012)" gradientUnits="userSpaceOnUse">
			<stop  offset="0" style="stop-color:#FFFFFF"/>
			<stop  offset="0.2" style="stop-color:#FFFFFF"/>
			<stop  offset="0.3765" style="stop-color:#E6E5E5"/>
			<stop  offset="1" style="stop-color:#C4C0C0"/>
		</radialGradient>
		<path fill-rule="evenodd" clip-rule="evenodd" fill="url(#SVGID_16_)" d="M57.3,108.225c-0.12-0.007-0.229,0.051-0.325,0.176
			l-4.05,5.199c-0.129,0.147-0.221,0.372-0.274,0.676c-0.068-0.062-0.144-0.137-0.226-0.226c-0.3-0.399-0.583-0.983-0.85-1.75
			s-0.45-1.5-0.55-2.2c-0.027-0.214-0.044-0.414-0.051-0.6c-0.013-0.48,0.054-0.83,0.2-1.05L54.7,103.1l0.075-0.1
			c0.166-0.366,0.433-0.35,0.8,0.05c0.333,0.4,0.666,1,1,1.8c0.333,0.801,0.55,1.567,0.649,2.301
			C57.288,107.562,57.313,107.92,57.3,108.225z"/>
		
			<radialGradient id="SVGID_17_" cx="-162.0977" cy="141.9805" r="3.8763" fx="-160.7448" fy="141.9805" gradientTransform="matrix(0.9997 -0.0258 1.3125 2.1509 -17.4261 -174.0673)" gradientUnits="userSpaceOnUse">
			<stop  offset="0" style="stop-color:#FFFFFF"/>
			<stop  offset="0.2" style="stop-color:#FFFFFF"/>
			<stop  offset="0.3765" style="stop-color:#E6E5E5"/>
			<stop  offset="1" style="stop-color:#C4C0C0"/>
		</radialGradient>
		<path fill-rule="evenodd" clip-rule="evenodd" fill="url(#SVGID_17_)" d="M7.425,133.075l2.75,5.725
			c0.176,0.293,0.068,0.51-0.325,0.65c-0.052,0.018-0.111,0.034-0.175,0.05c-0.533,0.1-1.216,0.066-2.05-0.1
			c-0.867-0.167-1.65-0.384-2.35-0.65c-0.767-0.333-1.25-0.684-1.45-1.05l-2.6-5.9c-0.1-0.399,0.117-0.633,0.65-0.7
			c0.5-0.066,1.15-0.033,1.95,0.101c0.833,0.2,1.583,0.45,2.25,0.75c0.667,0.3,1.083,0.6,1.25,0.899L7.425,133.075z"/>
		
			<radialGradient id="SVGID_18_" cx="-194.2837" cy="167.8438" r="3.8653" fx="-192.9346" fy="167.8438" gradientTransform="matrix(0.9928 -0.1197 1.5135 2.0212 -43.3645 -224.4442)" gradientUnits="userSpaceOnUse">
			<stop  offset="0" style="stop-color:#FFFFFF"/>
			<stop  offset="0.2" style="stop-color:#FFFFFF"/>
			<stop  offset="0.3765" style="stop-color:#E6E5E5"/>
			<stop  offset="1" style="stop-color:#C4C0C0"/>
		</radialGradient>
		<path fill-rule="evenodd" clip-rule="evenodd" fill="url(#SVGID_18_)" d="M17.725,135.025c0.138,0.104,0.238,0.213,0.3,0.324
			l3.4,5.65c0.185,0.237,0.126,0.429-0.175,0.575c-0.071,0.048-0.163,0.09-0.275,0.125c-0.467,0.133-1.15,0.166-2.05,0.1
			c-0.867-0.033-1.667-0.166-2.4-0.399c-0.188-0.063-0.363-0.13-0.525-0.2c0.309-0.136,0.384-0.336,0.225-0.601l-2.85-5.949
			c-0.112-0.202-0.337-0.402-0.675-0.601c0.422-0.084,0.997-0.084,1.725,0c0.8,0.066,1.534,0.217,2.2,0.45
			C17.105,134.667,17.472,134.842,17.725,135.025z"/>
		
			<radialGradient id="SVGID_19_" cx="-157.2212" cy="143.9365" r="3.8763" fx="-155.8683" fy="143.9365" gradientTransform="matrix(0.9997 -0.0258 1.3125 2.1509 -18.8179 -176.3482)" gradientUnits="userSpaceOnUse">
			<stop  offset="0" style="stop-color:#FFFFFF"/>
			<stop  offset="0.2" style="stop-color:#FFFFFF"/>
			<stop  offset="0.3765" style="stop-color:#E6E5E5"/>
			<stop  offset="1" style="stop-color:#C4C0C0"/>
		</radialGradient>
		<path fill-rule="evenodd" clip-rule="evenodd" fill="url(#SVGID_19_)" d="M9.85,139.45c0.393-0.141,0.501-0.357,0.325-0.65
			l-2.75-5.725c0.115-0.09,0.281-0.147,0.5-0.175c0.5-0.067,1.15-0.034,1.95,0.1c0.833,0.2,1.583,0.45,2.25,0.75
			c0.218,0.099,0.41,0.198,0.575,0.3c0.338,0.198,0.563,0.398,0.675,0.601l2.85,5.949c0.159,0.265,0.083,0.465-0.225,0.601
			c-0.073,0.039-0.165,0.072-0.275,0.1c-0.533,0.101-1.217,0.066-2.05-0.1c-0.867-0.167-1.65-0.384-2.35-0.65
			c-0.767-0.333-1.25-0.684-1.45-1.05L9.85,139.45z"/>
		
			<radialGradient id="SVGID_20_" cx="-354.1748" cy="242.4121" r="3.8683" fx="-352.8247" fy="242.4121" gradientTransform="matrix(0.8692 -0.4944 2.1779 1.2732 -179.6708 -347.8814)" gradientUnits="userSpaceOnUse">
			<stop  offset="0" style="stop-color:#FFFFFF"/>
			<stop  offset="0.2" style="stop-color:#FFFFFF"/>
			<stop  offset="0.3765" style="stop-color:#E6E5E5"/>
			<stop  offset="1" style="stop-color:#C4C0C0"/>
		</radialGradient>
		<path fill-rule="evenodd" clip-rule="evenodd" fill="url(#SVGID_20_)" d="M38.875,133.05c0.29,0.041,0.507,0.125,0.65,0.25
			l5.35,3.851c0.14,0.089,0.223,0.188,0.25,0.3c0.035,0.16-0.082,0.344-0.35,0.55c-0.4,0.3-1.017,0.6-1.851,0.9
			c-0.833,0.267-1.616,0.433-2.35,0.5c-0.506,0.061-0.922,0.052-1.25-0.025c-0.04-0.041-0.09-0.083-0.15-0.125l-4.95-4.3
			c-0.151-0.135-0.359-0.234-0.625-0.3c0.061-0.113,0.169-0.229,0.325-0.351c0.434-0.3,1.05-0.566,1.851-0.8
			c0.767-0.233,1.5-0.384,2.199-0.45C38.329,133.02,38.63,133.02,38.875,133.05z"/>
		
			<radialGradient id="SVGID_21_" cx="-320.1948" cy="230.0635" r="3.8763" fx="-318.8419" fy="230.0635" gradientTransform="matrix(0.9094 -0.416 2.0541 1.4543 -146.5829 -330.2393)" gradientUnits="userSpaceOnUse">
			<stop  offset="0" style="stop-color:#FFFFFF"/>
			<stop  offset="0.2" style="stop-color:#FFFFFF"/>
			<stop  offset="0.3765" style="stop-color:#E6E5E5"/>
			<stop  offset="1" style="stop-color:#C4C0C0"/>
		</radialGradient>
		<path fill-rule="evenodd" clip-rule="evenodd" fill="url(#SVGID_21_)" d="M33.375,140.975c0.063-0.138,0.014-0.279-0.15-0.425
			l-4.5-4.8c-0.09-0.09-0.206-0.173-0.35-0.25c0.046-0.03,0.096-0.063,0.15-0.1c0.399-0.233,1.017-0.434,1.85-0.601
			c0.8-0.166,1.55-0.25,2.25-0.25c0.38,0,0.705,0.033,0.975,0.101c0.266,0.065,0.474,0.165,0.625,0.3l4.95,4.3
			c0.061,0.042,0.11,0.084,0.15,0.125c0.148,0.204,0.032,0.429-0.351,0.675c-0.433,0.267-1.066,0.5-1.899,0.7
			c-0.867,0.233-1.667,0.366-2.4,0.4C34.129,141.15,33.695,141.092,33.375,140.975z"/>
		
			<radialGradient id="SVGID_22_" cx="-280.4263" cy="213.498" r="3.874" fx="-279.0742" fy="213.498" gradientTransform="matrix(0.9454 -0.3259 1.9037 1.652 -112.2493 -305.6961)" gradientUnits="userSpaceOnUse">
			<stop  offset="0" style="stop-color:#FFFFFF"/>
			<stop  offset="0.2" style="stop-color:#FFFFFF"/>
			<stop  offset="0.3765" style="stop-color:#E6E5E5"/>
			<stop  offset="1" style="stop-color:#C4C0C0"/>
		</radialGradient>
		<path fill-rule="evenodd" clip-rule="evenodd" fill="url(#SVGID_22_)" d="M27.075,141.55c0.187-0.156,0.187-0.339,0-0.55l-4-5.3
			l-0.025-0.025c0.44-0.186,1.065-0.328,1.875-0.425c0.8-0.1,1.567-0.116,2.3-0.05c0.486,0.066,0.869,0.166,1.15,0.3
			c0.144,0.077,0.26,0.16,0.35,0.25l4.5,4.8c0.164,0.146,0.214,0.287,0.15,0.425c-0.055,0.111-0.188,0.22-0.4,0.325
			c-0.466,0.267-1.116,0.45-1.949,0.55c-0.9,0.134-1.717,0.167-2.45,0.101C27.918,141.871,27.418,141.737,27.075,141.55z"/>
		
			<radialGradient id="SVGID_23_" cx="-236.2734" cy="191.8467" r="3.8723" fx="-234.9219" fy="191.8467" gradientTransform="matrix(0.9749 -0.2227 1.7141 1.8497 -75.3335 -269.033)" gradientUnits="userSpaceOnUse">
			<stop  offset="0" style="stop-color:#FFFFFF"/>
			<stop  offset="0.2" style="stop-color:#FFFFFF"/>
			<stop  offset="0.3765" style="stop-color:#E6E5E5"/>
			<stop  offset="1" style="stop-color:#C4C0C0"/>
		</radialGradient>
		<path fill-rule="evenodd" clip-rule="evenodd" fill="url(#SVGID_23_)" d="M21.25,141.575c0.301-0.146,0.359-0.338,0.175-0.575
			l-3.4-5.65c-0.062-0.111-0.162-0.22-0.3-0.324c0.413-0.123,0.979-0.197,1.7-0.226c0.833,0.033,1.583,0.117,2.25,0.25
			c0.749,0.195,1.207,0.403,1.375,0.625l0.025,0.025l4,5.3c0.187,0.211,0.187,0.394,0,0.55c-0.084,0.074-0.201,0.141-0.35,0.2
			c-0.5,0.167-1.167,0.283-2,0.35c-0.9,0.034-1.7-0.033-2.4-0.199C21.89,141.816,21.532,141.708,21.25,141.575z"/>
		
			<radialGradient id="SVGID_24_" cx="-700.1714" cy="14.6221" r="3.8687" fx="-698.8211" fy="14.6221" gradientTransform="matrix(-0.4588 -0.8885 1.3603 -2.126 -285.659 -478.1901)" gradientUnits="userSpaceOnUse">
			<stop  offset="0" style="stop-color:#FFFFFF"/>
			<stop  offset="0.2" style="stop-color:#FFFFFF"/>
			<stop  offset="0.3765" style="stop-color:#E6E5E5"/>
			<stop  offset="1" style="stop-color:#C4C0C0"/>
		</radialGradient>
		<path fill-rule="evenodd" clip-rule="evenodd" fill="url(#SVGID_24_)" d="M52.65,114.275c0.054-0.304,0.146-0.528,0.274-0.676
			l4.05-5.199c0.097-0.125,0.205-0.183,0.325-0.176c0.155-0.003,0.33,0.122,0.525,0.375c0.3,0.434,0.583,1.051,0.85,1.851
			c0.233,0.866,0.367,1.666,0.4,2.399c0.021,0.53-0.013,0.956-0.101,1.275c-0.035,0.019-0.068,0.044-0.1,0.075l-5.35,3.95
			c-0.091,0.056-0.174,0.147-0.25,0.274c-0.108-0.283-0.209-0.608-0.301-0.975c-0.199-0.8-0.316-1.566-0.35-2.3
			C52.61,114.807,52.618,114.515,52.65,114.275z"/>
		
			<radialGradient id="SVGID_25_" cx="-704.4609" cy="102.9521" r="3.8641" fx="-703.1123" fy="102.9521" gradientTransform="matrix(-0.2135 -0.9769 1.8665 -1.7048 -286.2948 -394.6556)" gradientUnits="userSpaceOnUse">
			<stop  offset="0" style="stop-color:#FFFFFF"/>
			<stop  offset="0.2" style="stop-color:#FFFFFF"/>
			<stop  offset="0.3765" style="stop-color:#E6E5E5"/>
			<stop  offset="1" style="stop-color:#C4C0C0"/>
		</radialGradient>
		<path fill-rule="evenodd" clip-rule="evenodd" fill="url(#SVGID_25_)" d="M59.4,120c-0.056,0.003-0.114,0.02-0.176,0.05
			l-6.149,2.4c-0.139,0.068-0.28,0.177-0.425,0.325c-0.036-0.286-0.062-0.611-0.075-0.976c0.033-0.8,0.133-1.55,0.3-2.25
			c0.11-0.506,0.243-0.881,0.4-1.125c0.076-0.127,0.159-0.219,0.25-0.274l5.35-3.95c0.031-0.031,0.064-0.057,0.1-0.075
			c0.228-0.158,0.444-0.017,0.65,0.425c0.167,0.5,0.267,1.184,0.3,2.05c0.033,0.867-0.033,1.65-0.2,2.351
			C59.627,119.374,59.519,119.724,59.4,120z"/>
		
			<radialGradient id="SVGID_26_" cx="-679.248" cy="176.625" r="3.8795" fx="-677.894" fy="176.625" gradientTransform="matrix(0.0483 -0.9988 2.2329 -1.1599 -305.8776 -350.4815)" gradientUnits="userSpaceOnUse">
			<stop  offset="0" style="stop-color:#FFFFFF"/>
			<stop  offset="0.2" style="stop-color:#FFFFFF"/>
			<stop  offset="0.3765" style="stop-color:#E6E5E5"/>
			<stop  offset="1" style="stop-color:#C4C0C0"/>
		</radialGradient>
		<path fill-rule="evenodd" clip-rule="evenodd" fill="url(#SVGID_26_)" d="M58.1,125.95c-0.041-0.233-0.183-0.316-0.425-0.25
			l-6.55,0.75c-0.025,0-0.05,0-0.075,0c0.046-0.188,0.104-0.389,0.175-0.601c0.2-0.8,0.467-1.517,0.801-2.149
			c0.215-0.391,0.423-0.699,0.625-0.925c0.145-0.148,0.286-0.257,0.425-0.325l6.149-2.4c0.062-0.03,0.12-0.047,0.176-0.05
			c0.229-0.035,0.37,0.165,0.425,0.6c0.066,0.5-0.017,1.167-0.25,2c-0.2,0.867-0.467,1.634-0.8,2.301
			C58.555,125.36,58.33,125.711,58.1,125.95z"/>
		
			<radialGradient id="SVGID_27_" cx="-624.1406" cy="228.9375" r="3.8702" fx="-622.7899" fy="228.9375" gradientTransform="matrix(0.3036 -0.9528 2.4644 -0.5426 -321.2177 -342.7064)" gradientUnits="userSpaceOnUse">
			<stop  offset="0" style="stop-color:#FFFFFF"/>
			<stop  offset="0.2" style="stop-color:#FFFFFF"/>
			<stop  offset="0.3765" style="stop-color:#E6E5E5"/>
			<stop  offset="1" style="stop-color:#C4C0C0"/>
		</radialGradient>
		<path fill-rule="evenodd" clip-rule="evenodd" fill="url(#SVGID_27_)" d="M55.2,131c-0.048-0.021-0.106-0.037-0.175-0.05
			l-6.351-1.851c-0.06-0.018-0.126-0.026-0.2-0.024c0.419-0.672,0.853-1.264,1.301-1.775c0.496-0.527,0.921-0.811,1.274-0.85
			c0.025,0,0.05,0,0.075,0l6.55-0.75c0.242-0.066,0.384,0.017,0.425,0.25c0.018,0.107,0.009,0.258-0.024,0.45
			c-0.066,0.5-0.283,1.116-0.65,1.85c-0.434,0.767-0.916,1.45-1.45,2.05C55.703,130.606,55.444,130.84,55.2,131z"/>
		
			<radialGradient id="SVGID_28_" cx="-386.0479" cy="251.8672" r="3.8762" fx="-384.695" fy="251.8672" gradientTransform="matrix(0.8255 -0.5643 2.2702 1.0868 -207.4267 -357.7284)" gradientUnits="userSpaceOnUse">
			<stop  offset="0" style="stop-color:#FFFFFF"/>
			<stop  offset="0.2" style="stop-color:#FFFFFF"/>
			<stop  offset="0.3765" style="stop-color:#E6E5E5"/>
			<stop  offset="1" style="stop-color:#C4C0C0"/>
		</radialGradient>
		<path fill-rule="evenodd" clip-rule="evenodd" fill="url(#SVGID_28_)" d="M45.125,137.45c-0.027-0.111-0.11-0.211-0.25-0.3
			l-5.35-3.851c-0.144-0.125-0.36-0.209-0.65-0.25c0.063-0.079,0.146-0.162,0.25-0.25c0.333-0.333,0.9-0.649,1.7-0.95
			c0.8-0.3,1.533-0.5,2.2-0.6c0.575-0.101,1.017-0.108,1.324-0.025c0.109,0.034,0.201,0.075,0.275,0.125l5.6,3.45
			c0.094,0.034,0.16,0.076,0.2,0.125c0.132,0.152,0.048,0.377-0.25,0.675c-0.366,0.334-0.95,0.684-1.75,1.051
			c-0.8,0.333-1.566,0.566-2.3,0.699C45.74,137.411,45.407,137.445,45.125,137.45z"/>
		
			<radialGradient id="SVGID_29_" cx="-492.2334" cy="263.2529" r="3.8736" fx="-490.8814" fy="263.2529" gradientTransform="matrix(0.6519 -0.7583 2.4783 0.4615 -281.1894 -363.5129)" gradientUnits="userSpaceOnUse">
			<stop  offset="0" style="stop-color:#FFFFFF"/>
			<stop  offset="0.2" style="stop-color:#FFFFFF"/>
			<stop  offset="0.3765" style="stop-color:#E6E5E5"/>
			<stop  offset="1" style="stop-color:#C4C0C0"/>
		</radialGradient>
		<path fill-rule="evenodd" clip-rule="evenodd" fill="url(#SVGID_29_)" d="M48.475,129.075c0.074-0.002,0.141,0.007,0.2,0.024
			l6.351,1.851c0.068,0.013,0.127,0.029,0.175,0.05c0.2,0.127,0.191,0.394-0.025,0.8c-0.267,0.4-0.733,0.867-1.399,1.4
			c-0.7,0.566-1.384,1.017-2.051,1.35c-0.514,0.224-0.946,0.349-1.3,0.375c-0.04-0.049-0.106-0.091-0.2-0.125l-5.6-3.45
			c-0.074-0.05-0.166-0.091-0.275-0.125c0.237-0.215,0.513-0.44,0.825-0.675c0.667-0.5,1.316-0.883,1.95-1.149
			C47.699,129.154,48.149,129.046,48.475,129.075z"/>
		
			<radialGradient id="SVGID_30_" cx="-475.9238" cy="93.9297" r="3.4329" fx="-474.7257" fy="93.9297" gradientTransform="matrix(-0.2185 -0.9758 2.1556 -0.6736 -281.1757 -387.6537)" gradientUnits="userSpaceOnUse">
			<stop  offset="0" style="stop-color:#FFFFFF"/>
			<stop  offset="0.2" style="stop-color:#FFFFFF"/>
			<stop  offset="0.3765" style="stop-color:#E6E5E5"/>
			<stop  offset="1" style="stop-color:#C4C0C0"/>
		</radialGradient>
		<path fill-rule="evenodd" clip-rule="evenodd" fill="url(#SVGID_30_)" d="M28.85,15.2c-0.039,0.159-0.08,0.309-0.125,0.45
			c-0.199,0.567-0.466,0.9-0.8,1l-5.45,0.75c-0.145,0.015-0.27-0.027-0.375-0.125c-0.156-0.115-0.281-0.323-0.375-0.625
			c-0.167-0.433-0.25-0.983-0.25-1.65c0.033-0.633,0.15-1.2,0.35-1.7c0.172-0.43,0.372-0.697,0.6-0.8
			c0.089,0.033,0.189,0.05,0.3,0.05c1.8,0.133,3.583-0.083,5.35-0.65c0.156-0.028,0.298-0.095,0.425-0.2
			c0.059,0.089,0.117,0.206,0.175,0.35c0.167,0.434,0.267,1.017,0.3,1.75C28.975,14.315,28.934,14.781,28.85,15.2z"/>
		
			<radialGradient id="SVGID_31_" cx="-548.5469" cy="101.0332" r="4.1434" fx="-547.1007" fy="101.0332" gradientTransform="matrix(-0.181 -0.9835 1.789 -1.1373 -254.762 -407.1762)" gradientUnits="userSpaceOnUse">
			<stop  offset="0" style="stop-color:#FFFFFF"/>
			<stop  offset="0.2" style="stop-color:#FFFFFF"/>
			<stop  offset="0.3765" style="stop-color:#E6E5E5"/>
			<stop  offset="1" style="stop-color:#C4C0C0"/>
		</radialGradient>
		<path fill-rule="evenodd" clip-rule="evenodd" fill="url(#SVGID_31_)" d="M22.1,17.275c0.105,0.098,0.23,0.14,0.375,0.125
			l5.45-0.75c0.334-0.1,0.601-0.433,0.8-1c0.045-0.141,0.086-0.291,0.125-0.45c0.084,0.462,0.125,1.013,0.125,1.65
			c0,0.9-0.083,1.717-0.25,2.45c-0.043,0.167-0.093,0.317-0.149,0.45c-0.173,0.51-0.39,0.844-0.65,1l-5.45,2.3
			c-0.188,0.057-0.346-0.002-0.475-0.175c-0.11-0.121-0.202-0.313-0.275-0.575c-0.167-0.533-0.25-1.233-0.25-2.1
			c0.033-0.8,0.15-1.534,0.35-2.2C21.907,17.713,21.999,17.472,22.1,17.275z"/>
		
			<radialGradient id="SVGID_32_" cx="-581.0923" cy="98.6895" r="4.0206" fx="-579.689" fy="98.6895" gradientTransform="matrix(-0.1865 -0.9824 1.8468 -1.4488 -265.5771 -405.1608)" gradientUnits="userSpaceOnUse">
			<stop  offset="0" style="stop-color:#FFFFFF"/>
			<stop  offset="0.2" style="stop-color:#FFFFFF"/>
			<stop  offset="0.3765" style="stop-color:#E6E5E5"/>
			<stop  offset="1" style="stop-color:#C4C0C0"/>
		</radialGradient>
		<path fill-rule="evenodd" clip-rule="evenodd" fill="url(#SVGID_32_)" d="M28.25,25c-0.141,0.319-0.315,0.536-0.525,0.65
			l-5.45,3.15c-0.086,0.035-0.169,0.043-0.25,0.025c-0.209-0.029-0.376-0.254-0.5-0.675c-0.167-0.5-0.25-1.183-0.25-2.05
			c0.033-0.8,0.15-1.55,0.35-2.25c0.112-0.41,0.237-0.735,0.375-0.975c0.129,0.173,0.287,0.231,0.475,0.175l5.45-2.3
			c0.261-0.156,0.478-0.49,0.65-1c0.133,0.51,0.2,1.144,0.2,1.9c0,0.9-0.084,1.717-0.25,2.45C28.453,24.458,28.361,24.758,28.25,25z
			"/>
		
			<radialGradient id="SVGID_33_" cx="-609.8408" cy="96.3145" r="3.9224" fx="-608.4719" fy="96.3145" gradientTransform="matrix(-0.1912 -0.9815 1.893 -1.7432 -274.1049 -402.0435)" gradientUnits="userSpaceOnUse">
			<stop  offset="0" style="stop-color:#FFFFFF"/>
			<stop  offset="0.2" style="stop-color:#FFFFFF"/>
			<stop  offset="0.3765" style="stop-color:#E6E5E5"/>
			<stop  offset="1" style="stop-color:#C4C0C0"/>
		</radialGradient>
		<path fill-rule="evenodd" clip-rule="evenodd" fill="url(#SVGID_33_)" d="M27.95,30.575c-0.128,0.295-0.286,0.521-0.476,0.675
			l-5.45,3.85c-0.091,0.055-0.174,0.08-0.25,0.075c-0.212-0.005-0.379-0.213-0.5-0.625c-0.167-0.466-0.25-1.133-0.25-2
			c0.033-0.8,0.15-1.566,0.35-2.3c0.19-0.728,0.406-1.202,0.65-1.425c0.081,0.018,0.164,0.009,0.25-0.025l5.45-3.15
			c0.21-0.114,0.385-0.331,0.525-0.65c0.01,0.016,0.019,0.032,0.025,0.05c0.199,0.467,0.283,1.133,0.25,2
			c0,0.9-0.084,1.733-0.25,2.5C28.194,29.955,28.086,30.296,27.95,30.575z"/>
		
			<radialGradient id="SVGID_34_" cx="-433.8066" cy="83.2705" r="2.67" fx="-432.8748" fy="83.2705" gradientTransform="matrix(-0.2809 -0.9597 2.7809 -0.4635 -327.9978 -375.395)" gradientUnits="userSpaceOnUse">
			<stop  offset="0" style="stop-color:#FFFFFF"/>
			<stop  offset="0.2" style="stop-color:#FFFFFF"/>
			<stop  offset="0.3765" style="stop-color:#E6E5E5"/>
			<stop  offset="1" style="stop-color:#C4C0C0"/>
		</radialGradient>
		<path fill-rule="evenodd" clip-rule="evenodd" fill="url(#SVGID_34_)" d="M28.675,4.525c-0.186-0.314-0.418-0.456-0.7-0.425
			l-5.399,0.4c-0.18,0.022-0.347,0.131-0.5,0.325c-0.077-0.091-0.143-0.2-0.2-0.325c-0.167-0.333-0.233-0.75-0.2-1.25
			c0-0.467,0.1-0.883,0.3-1.25c0.2-0.4,0.517-0.667,0.95-0.8c1.667-0.633,3.317-0.784,4.95-0.45c0.5,0.133,0.833,0.383,1,0.75
			s0.267,0.8,0.3,1.3c0,0.567-0.083,1.017-0.25,1.35C28.855,4.3,28.772,4.425,28.675,4.525z"/>
		
			<radialGradient id="SVGID_35_" cx="-438.542" cy="80.3486" r="2.6771" fx="-437.6076" fy="80.3486" gradientTransform="matrix(-0.2895 -0.9572 2.7501 -0.4763 -322.5982 -375.9985)" gradientUnits="userSpaceOnUse">
			<stop  offset="0" style="stop-color:#FFFFFF"/>
			<stop  offset="0.2" style="stop-color:#FFFFFF"/>
			<stop  offset="0.3765" style="stop-color:#E6E5E5"/>
			<stop  offset="1" style="stop-color:#C4C0C0"/>
		</radialGradient>
		<path fill-rule="evenodd" clip-rule="evenodd" fill="url(#SVGID_35_)" d="M28.55,7.7c-0.202-0.289-0.427-0.405-0.675-0.35
			l-5.35,0.85C22.48,8.205,22.438,8.213,22.4,8.225c-0.248-0.059-0.44-0.251-0.575-0.575c-0.167-0.367-0.25-0.783-0.25-1.25
			c0.033-0.5,0.133-0.917,0.3-1.25c0.065-0.13,0.132-0.238,0.2-0.325c0.153-0.194,0.32-0.303,0.5-0.325l5.399-0.4
			c0.282-0.031,0.515,0.11,0.7,0.425c0.021,0.027,0.038,0.052,0.05,0.075c0.2,0.367,0.301,0.8,0.301,1.3c0,0.533-0.084,1-0.25,1.4
			C28.714,7.459,28.639,7.593,28.55,7.7z"/>
		
			<radialGradient id="SVGID_36_" cx="-462.9463" cy="77.7871" r="3.1274" fx="-461.8548" fy="77.7871" gradientTransform="matrix(-0.2958 -0.9553 2.3342 -0.6355 -293.2206 -383.65)" gradientUnits="userSpaceOnUse">
			<stop  offset="0" style="stop-color:#FFFFFF"/>
			<stop  offset="0.2" style="stop-color:#FFFFFF"/>
			<stop  offset="0.3765" style="stop-color:#E6E5E5"/>
			<stop  offset="1" style="stop-color:#C4C0C0"/>
		</radialGradient>
		<path fill-rule="evenodd" clip-rule="evenodd" fill="url(#SVGID_36_)" d="M28.5,11.7c-0.127,0.105-0.269,0.171-0.425,0.2
			c-1.767,0.567-3.55,0.783-5.35,0.65c-0.111,0-0.211-0.017-0.3-0.05c-0.227-0.098-0.41-0.297-0.55-0.6
			c-0.167-0.367-0.25-0.85-0.25-1.45c0-0.567,0.067-1.083,0.2-1.55c0.142-0.368,0.333-0.593,0.575-0.675
			c0.039-0.012,0.08-0.02,0.125-0.025l5.35-0.85c0.248-0.055,0.473,0.062,0.675,0.35c0.043,0.058,0.085,0.125,0.125,0.2
			c0.2,0.367,0.316,0.867,0.351,1.5c0.033,0.633-0.017,1.184-0.15,1.65C28.779,11.337,28.654,11.554,28.5,11.7z"/>
	</g>
</g>
</svg>
